<svg width="24" height="24" viewBox="0 0 24 24" fill="none" xmlns="http://www.w3.org/2000/svg">
<path d="M15.82 12C15.82 15.2715 15.3418 18.2116 14.5843 20.3159C14.2047 21.3702 13.7645 22.1881 13.3008 22.7329C12.8354 23.2797 12.3939 23.5 12 23.5C11.6062 23.5 11.1647 23.2797 10.6992 22.7329C10.2355 22.1881 9.79529 21.3702 9.41575 20.3159C8.6582 18.2116 8.18001 15.2715 8.18001 12C8.18001 8.72845 8.6582 5.78839 9.41575 3.68408C9.79529 2.6298 10.2355 1.81193 10.6992 1.26709C11.1647 0.720254 11.6062 0.5 12 0.5C12.3939 0.5 12.8354 0.720254 13.3008 1.26709C13.7645 1.81193 14.2047 2.6298 14.5843 3.68408C15.3418 5.78839 15.82 8.72845 15.82 12Z" stroke="#222222"/>
<path d="M0.960007 7.91999C10.0599 5.04383 14.8824 5.11681 23.04 7.91999M0.960007 7.91999C10.0599 5.04383 14.8824 5.11681 23.04 7.91999" stroke="black"/>
<path d="M23.04 16.32C13.9401 19.1962 9.11756 19.1232 0.959994 16.32M23.04 16.32C13.9401 19.1962 9.11756 19.1232 0.959994 16.32" stroke="black"/>
<path d="M0.23999 12H23.76" stroke="black"/>
<circle cx="12" cy="12" r="11.5" stroke="#222222"/>
</svg>
