<svg width="24" height="24" viewBox="0 0 24 24" fill="none" xmlns="http://www.w3.org/2000/svg">
<g clip-path="url(#clip0_4464_29)">
<path d="M11.9931 23.3103C18.2383 23.3103 23.301 18.2465 23.301 12C23.301 5.75345 18.2383 0.689636 11.9931 0.689636C5.748 0.689636 0.685318 5.75345 0.685318 12C0.685318 18.2465 5.748 23.3103 11.9931 23.3103Z" stroke="#222222" stroke-miterlimit="10"/>
<path d="M12.0754 23.1724C14.3009 23.1724 16.1051 18.1518 16.1051 11.9586C16.1051 5.7654 14.3009 0.744812 12.0754 0.744812C9.84984 0.744812 8.04568 5.7654 8.04568 11.9586C8.04568 18.1518 9.84984 23.1724 12.0754 23.1724Z" stroke="#222222" stroke-miterlimit="10"/>
<path d="M1.41176 8.04138H22.5471" stroke="#222222" stroke-miterlimit="10"/>
<path d="M1.41176 15.8759H22.5471" stroke="#222222" stroke-miterlimit="10"/>
</g>
<defs>
<clipPath id="clip0_4464_29">
<rect width="24" height="24" fill="white"/>
</clipPath>
</defs>
</svg>
