<svg width="24" height="21" viewBox="0 0 24 21" fill="none" xmlns="http://www.w3.org/2000/svg">
<g clip-path="url(#clip0_4464_52)">
<path d="M6.64954 7.36285L9.7581 4.38608L22.7164 16.7951C23.1287 17.1898 23.3602 17.7252 23.3602 18.2834C23.3602 18.8417 23.1287 19.3771 22.7164 19.7718C22.3042 20.1666 21.7451 20.3883 21.1622 20.3883C20.5792 20.3883 20.0201 20.1666 19.6079 19.7718L6.64954 7.36285Z" stroke="#222222" stroke-linecap="round" stroke-linejoin="round"/>
<path d="M12.3607 0.794474L9.83953 3.20877C9.60496 3.43339 9.60496 3.79757 9.83953 4.02219L14.4933 8.47869C14.7279 8.70331 15.1082 8.70331 15.3428 8.47869L17.8639 6.0644C18.0985 5.83978 18.0985 5.4756 17.8639 5.25098L13.2101 0.794473C12.9756 0.569853 12.5953 0.569854 12.3607 0.794474Z" stroke="#222222" stroke-linecap="round" stroke-linejoin="round"/>
<path d="M5.47253 7.37656L2.95134 9.79086C2.71678 10.0155 2.71678 10.3797 2.95134 10.6043L7.60514 15.0608C7.83971 15.2854 8.22001 15.2854 8.45458 15.0608L10.9758 12.6465C11.2103 12.4219 11.2103 12.0577 10.9758 11.8331L6.32196 7.37656C6.0874 7.15194 5.70709 7.15194 5.47253 7.37656Z" stroke="#222222" stroke-linecap="round" stroke-linejoin="round"/>
<path d="M9.34185 18.6381H0.523962C0.234586 18.6381 0 18.8628 0 19.1399V20.3392C0 20.6163 0.234586 20.8409 0.523962 20.8409H9.34185C9.63123 20.8409 9.86581 20.6163 9.86581 20.3392V19.1399C9.86581 18.8628 9.63123 18.6381 9.34185 18.6381Z" fill="#222222"/>
</g>
<defs>
<clipPath id="clip0_4464_52">
<rect width="24" height="21" fill="white"/>
</clipPath>
</defs>
</svg>
